<?xml version="1.0" standalone="no"?>
<!DOCTYPE svg PUBLIC "-//W3C//DTD SVG 20010904//EN"
 "http://www.w3.org/TR/2001/REC-SVG-20010904/DTD/svg10.dtd">
<svg version="1.0" xmlns="http://www.w3.org/2000/svg"
 width="700.000000pt" height="700.000000pt" viewBox="0 0 700.000000 700.000000"
 preserveAspectRatio="xMidYMid meet">
<metadata>
Created by potrace 1.11, written by Peter Selinger 2001-2013
</metadata>
<g transform="translate(0.000000,700.000000) scale(0.100000,-0.100000)"
fill="#000000" stroke="none">
<path d="M4188 6905 c-2 -1 -48 -5 -103 -9 -142 -9 -174 -13 -315 -41 -14 -3
-36 -7 -50 -10 -14 -3 -70 -18 -125 -34 -761 -219 -1374 -821 -1636 -1603 -35
-106 -73 -248 -85 -318 -2 -14 -6 -38 -9 -55 -3 -16 -7 -40 -9 -53 -19 -94
-26 -401 -12 -527 16 -152 70 -377 113 -475 139 -313 254 -464 517 -680 17
-14 18 -14 12 7 -4 12 -9 32 -11 45 -3 13 -7 34 -10 48 -17 78 -29 212 -29
320 0 148 11 260 40 410 20 108 77 290 127 410 205 493 578 891 1025 1093 172
78 395 137 582 153 95 9 321 8 390 0 125 -16 190 -26 235 -36 65 -15 66 -14
30 63 -18 39 -74 164 -125 277 -50 113 -102 228 -115 255 -13 28 -53 118 -90
200 -37 83 -73 164 -81 180 -7 17 -49 109 -92 205 l-79 175 -46 1 c-26 0 -48
0 -49 -1z"/>
<path d="M4458 5145 c-2 -1 -54 -5 -116 -9 -63 -3 -117 -8 -120 -10 -4 -2 -29
-6 -57 -10 -56 -7 -88 -12 -115 -21 -10 -3 -27 -7 -37 -9 -140 -28 -377 -131
-518 -227 -87 -59 -122 -87 -208 -168 -63 -60 -205 -223 -181 -209 6 4 21 9
35 12 13 3 58 13 99 22 53 11 132 17 275 18 201 1 288 -5 410 -29 22 -4 47 -9
55 -10 84 -16 290 -83 405 -132 143 -61 341 -174 440 -250 17 -13 35 -27 40
-31 180 -132 374 -348 496 -552 105 -176 196 -418 225 -595 3 -20 8 -47 10
-59 25 -123 24 -486 -1 -617 -3 -13 -10 -51 -15 -84 -6 -33 -13 -68 -16 -77
-4 -14 -1 -16 13 -11 16 6 574 255 683 305 25 11 63 29 86 38 42 18 99 45 232
106 40 19 75 34 77 34 2 0 41 17 87 38 46 21 107 49 136 62 l54 24 -6 121 c-3
66 -8 131 -10 145 -2 14 -7 50 -11 80 -52 441 -275 924 -580 1259 -449 492
-1077 801 -1700 836 -55 4 -114 8 -132 9 -18 2 -33 3 -35 1z"/>
<path d="M1365 4850 c-33 -16 -337 -155 -675 -309 l-615 -280 1 -103 c0 -57 4
-130 8 -163 4 -33 10 -80 12 -105 10 -91 81 -390 104 -435 5 -11 20 -49 34
-85 32 -88 108 -244 163 -338 41 -70 120 -190 133 -202 3 -3 21 -25 40 -50
406 -525 1036 -877 1710 -956 86 -10 384 -12 435 -3 22 4 60 9 85 12 199 24
459 114 634 220 146 89 290 213 397 343 l58 71 -57 -14 c-31 -7 -75 -15 -97
-18 -22 -3 -65 -9 -95 -14 -59 -10 -343 -7 -425 4 -382 52 -728 191 -1054 425
-68 49 -183 150 -259 230 -216 224 -382 517 -458 807 -20 76 -42 193 -51 268
-18 148 -5 500 22 595 2 8 7 38 11 65 3 28 8 53 11 58 7 12 -10 7 -72 -23z"/>
<path d="M3448 4075 c-2 -2 -23 -5 -48 -8 -103 -13 -226 -76 -313 -161 -75
-74 -90 -93 -128 -174 -44 -90 -62 -189 -55 -292 21 -311 265 -546 577 -555
235 -7 448 120 548 326 22 47 46 109 52 139 10 55 14 187 5 225 -17 81 -45
153 -90 233 -22 39 -109 126 -159 161 -95 65 -208 102 -323 106 -35 1 -65 1
-66 0z"/>
<path d="M4514 3849 c4 -13 9 -35 12 -49 2 -14 7 -36 9 -50 13 -63 15 -80 22
-150 32 -339 -40 -719 -200 -1065 -78 -168 -188 -347 -290 -470 -69 -83 -237
-249 -319 -313 -223 -174 -527 -315 -773 -356 -16 -3 -61 -11 -100 -18 -115
-21 -501 -16 -618 8 -12 2 -37 7 -56 10 -58 10 -71 13 -80 19 -5 3 -12 1 -15
-4 -5 -8 11 -46 106 -251 17 -36 48 -105 70 -155 22 -49 53 -119 70 -155 46
-101 65 -143 145 -320 42 -91 94 -205 117 -255 23 -50 55 -121 71 -158 l30
-69 140 5 c77 3 147 8 155 10 8 3 40 8 71 11 30 3 62 7 70 10 8 3 28 7 44 10
143 21 379 98 556 180 667 310 1190 975 1358 1731 145 649 2 1265 -389 1678
-48 50 -116 114 -150 141 -56 44 -63 47 -56 25z"/>
</g>
</svg>
