<?xml version="1.0" encoding="utf-8"?>
<!-- Generator: Adobe Illustrator 21.1.0, SVG Export Plug-In . SVG Version: 6.00 Build 0)  -->
<svg version="1.1" id="Layer_1" xmlns="http://www.w3.org/2000/svg" xmlns:xlink="http://www.w3.org/1999/xlink" x="0px" y="0px"
	 viewBox="0 0 600 600" style="enable-background:new 0 0 600 600;" xml:space="preserve">
<style type="text/css">
	.st0{clip-path:url(#SVGID_2_);fill:#617A6C;}
	.st1{fill:#19462C;}
	.st2{font-family:'MyriadPro-Bold';}
	.st3{font-size:375.2495px;}
	.st4{fill:#F7D3B1;}
	.st5{fill:#F2C9A0;}
	.st6{fill:#006293;}
</style>
<g>
	<g>
		<defs>
			<circle id="SVGID_1_" cx="300" cy="300" r="275"/>
		</defs>
		<use xlink:href="#SVGID_1_"  style="overflow:visible;fill:#729381;"/>
		<clipPath id="SVGID_2_">
			<use xlink:href="#SVGID_1_"  style="overflow:visible;"/>
		</clipPath>
		<polyline class="st0" points="377.5,572.4 597.6,604 677.5,441.8 454.7,211.8 453.7,226 401.2,367 344.5,339.5 263.3,346.3 
			200.4,455.3 260.4,455.3 200.4,455.3 		"/>
	</g>
</g>
<text transform="matrix(1 0 0 1 196.7847 364.752)" class="st1 st2 st3">$</text>
<g>
	<path class="st4" d="M273.4,371.9v46.2h-61.8v-16.8c0-19.3-73.8-61.3-73.8-94.9c0-29.7-1.6-45.3,0-77.2c2-41,42.6-3.4,42.6,24.6
		c0,17.5-4.4,31.1,8.4,49.2c1.4-9.6,12.8-14.9,19.8-7.8C227.9,314.4,273.4,345.6,273.4,371.9z"/>
	<path class="st5" d="M212.9,337.5l3.8-4.6c0,0-10.7-8.9-14.9-12.1c-8.4-6.4-13.2-13.4-12.8-18.2c0,0.1-0.1,0.3-0.1,0.4
		c-1.6-2.2-2.9-4.4-4-6.5l-0.8,1.7c-3.5,7.6,1.7,17.8,14.1,27.3C202.3,328.7,212.9,337.5,212.9,337.5z"/>
</g>
<rect x="200.4" y="418.1" class="st6" width="83.4" height="37.3"/>
<g>
	<path class="st4" d="M326.6,371.9v46.2h61.8v-16.8c0-19.3,73.8-61.3,73.8-94.9c0-29.7,1.6-45.3,0-77.2c-2-41-42.6-3.4-42.6,24.6
		c0,17.5,4.4,31.1-8.4,49.2c-1.4-9.6-12.8-14.9-19.8-7.8C372.1,314.4,326.6,345.6,326.6,371.9z"/>
	<path class="st5" d="M387.1,337.5l-3.8-4.6c0,0,10.7-8.9,14.9-12.1c8.4-6.4,13.2-13.4,12.8-18.2c0,0.1,0.1,0.3,0.1,0.4
		c1.6-2.2,2.9-4.4,4-6.5l0.8,1.7c3.5,7.6-1.7,17.8-14.1,27.3C397.7,328.7,387.1,337.5,387.1,337.5z"/>
</g>
<rect x="316.3" y="418.1" class="st6" width="83.4" height="37.3"/>
</svg>
