<?xml version="1.0" encoding="utf-8"?>
<!-- Generator: Adobe Illustrator 21.0.2, SVG Export Plug-In . SVG Version: 6.00 Build 0)  -->
<svg version="1.1" id="Layer_1" xmlns="http://www.w3.org/2000/svg" xmlns:xlink="http://www.w3.org/1999/xlink" x="0px" y="0px"
	 viewBox="0 0 105 105" style="enable-background:new 0 0 105 105;" xml:space="preserve">
<style type="text/css">
	.st0{fill:#FFFFFF;}
</style>
<g id="Layer_1_1_">
	<path class="st0" d="M72.3,91.3l-2.9,1.4c-1.5,0.6-2.9,1.2-4.5,1.6c1.2-1.4,2.3-2.9,3.4-4.5l-1.6-4.2c-2.3,3.6-5,7-8,10.1
		c-1.5,0.2-3.1,0.4-4.6,0.4V74.4c3,0.1,6,0.6,8.9,1.3l-1.6-4.1c-2.4-0.5-4.8-0.8-7.3-0.9V54.2h22.2c-0.1,2.9-0.4,5.8-0.8,8.6
		l3.5,1.3c0.6-3.3,0.9-6.6,1-9.9h16c-0.2,5.4-1.4,10.5-3.4,15.1l-1.4,3c-1.1,2.1-2.3,4.1-3.7,5.9l2.6,2.6c6-8,9.6-17.9,9.6-28.6
		C99.7,26,78.4,4.7,52.2,4.7S4.8,26.2,4.8,52.3c0,26.2,21.3,47.5,47.5,47.5c10.8,0,20.8-3.6,28.7-9.7l-2.6-2.6
		C76.5,88.9,74.4,90.2,72.3,91.3z M96,50.5H80c-0.2-7.9-1.9-15.5-4.8-22.6c3-1.7,5.9-3.7,8.5-6C91,29.3,95.6,39.4,96,50.5z M81,19.3
		c-2.3,2-4.7,3.7-7.3,5.2c-2.4-5.1-5.5-9.8-9.1-14.2C70.7,12.1,76.3,15.2,81,19.3z M54.1,8.6c1.5,0,2.9,0.2,4.3,0.4
		c5,5.1,9.1,10.9,12.1,17.2c-5.1,2.3-10.6,3.6-16.3,3.9C54.1,30,54.1,8.6,54.1,8.6z M54.1,33.7c6.2-0.2,12.2-1.7,17.8-4.2
		c2.7,6.6,4.1,13.7,4.4,21H54.1V33.7z M40.1,10.3c-3.7,4.4-6.8,9.1-9.2,14.2c-2.6-1.5-5-3.2-7.3-5.2C28.3,15.2,33.9,12.1,40.1,10.3z
		 M20.9,21.9c2.6,2.3,5.5,4.3,8.5,6c-2.9,7.1-4.5,14.8-4.8,22.6H8.5C9,39.4,13.6,29.3,20.9,21.9z M8.5,54.2h16.1
		c0.2,7.8,1.8,15.4,4.6,22.5c-3,1.7-5.8,3.7-8.5,6C13.6,75.2,9,65.2,8.5,54.2z M23.4,85.3c2.3-2,4.7-3.7,7.2-5.2
		c2.4,5.1,5.4,9.8,9,14.2C33.6,92.5,28.1,89.3,23.4,85.3z M50.4,96.1c-1.5-0.1-3-0.2-4.5-0.4c-5-5.1-9-11-12-17.3
		c5.1-2.4,10.7-3.7,16.5-4C50.4,74.4,50.4,96.1,50.4,96.1z M50.4,70.8C44.2,71,38.1,72.5,32.5,75c-2.6-6.6-4-13.6-4.2-20.8h22.2
		L50.4,70.8L50.4,70.8z M50.4,50.5H28.3c0.2-7.3,1.7-14.3,4.4-21c5.5,2.5,11.6,3.9,17.8,4.2L50.4,50.5L50.4,50.5z M50.4,30
		c-5.7-0.2-11.2-1.6-16.3-3.9c3-6.3,7.1-12.1,12.1-17.2c1.4-0.2,2.8-0.3,4.2-0.4C50.4,8.5,50.4,30,50.4,30z M83.8,77.2l16.4,16.4
		l-6.5,6.5L77.2,83.7l-6.7,6.7L58.4,58.3l32.1,12.2L83.8,77.2z"/>
</g>
</svg>
