<?xml version="1.0" encoding="utf-8"?>
<!-- Generator: Adobe Illustrator 21.0.2, SVG Export Plug-In . SVG Version: 6.00 Build 0)  -->
<svg version="1.1" id="Layer_1" xmlns="http://www.w3.org/2000/svg" xmlns:xlink="http://www.w3.org/1999/xlink" x="0px" y="0px"
	 viewBox="0 0 20 20" style="enable-background:new 0 0 20 20;" xml:space="preserve">
<style type="text/css">
	.st0{fill:#2378CB;}
	.st1{fill:none;stroke:#2378CB;stroke-width:0.2;stroke-miterlimit:10;}
</style>
<path class="st0" d="M17.9,5.6l-4.5-4.5C13.3,1.1,13.1,1,13,1H3.5C2.7,1,2,1.7,2,2.5v16C2,19.3,2.7,20,3.5,20h13
	c0.8,0,1.5-0.7,1.5-1.5V6C18,5.9,17.9,5.7,17.9,5.6z M16.8,6h-3.3C13.2,6,13,5.8,13,5.5V2.2L16.8,6z M17,18.5c0,0.3-0.2,0.5-0.5,0.5
	h-13C3.2,19,3,18.8,3,18.5v-16C3,2.2,3.2,2,3.5,2H12v3.5C12,6.3,12.7,7,13.5,7H17V18.5z"/>
<g>
	<path class="st0" d="M15.5,11.4H4.6c-0.2,0-0.3,0.2-0.3,0.3S4.5,12,4.6,12h10.8c0.2,0,0.3-0.2,0.3-0.3S15.7,11.4,15.5,11.4z
		 M4.6,10.2h10.8c0.2,0,0.3-0.2,0.3-0.3s-0.2-0.3-0.3-0.3H4.6c-0.2,0-0.3,0.2-0.3,0.3S4.4,10.2,4.6,10.2z M15.5,13.3H4.6
		c-0.2,0-0.3,0.2-0.3,0.3c0,0.2,0.2,0.3,0.3,0.3h10.8c0.2,0,0.3-0.2,0.3-0.3C15.8,13.5,15.7,13.3,15.5,13.3z M12,15.3H4.6
		c-0.2,0-0.3,0.2-0.3,0.3S4.4,16,4.6,16H12c0.2,0,0.3-0.2,0.3-0.3S12.2,15.3,12,15.3z"/>
</g>
<g>
	<path class="st1" d="M15.5,11.4H4.6c-0.2,0-0.3,0.2-0.3,0.3S4.5,12,4.6,12h10.8c0.2,0,0.3-0.2,0.3-0.3S15.7,11.4,15.5,11.4z
		 M4.6,10.2h10.8c0.2,0,0.3-0.2,0.3-0.3s-0.2-0.3-0.3-0.3H4.6c-0.2,0-0.3,0.2-0.3,0.3S4.4,10.2,4.6,10.2z M15.5,13.3H4.6
		c-0.2,0-0.3,0.2-0.3,0.3c0,0.2,0.2,0.3,0.3,0.3h10.8c0.2,0,0.3-0.2,0.3-0.3C15.8,13.5,15.7,13.3,15.5,13.3z M12,15.3H4.6
		c-0.2,0-0.3,0.2-0.3,0.3S4.4,16,4.6,16H12c0.2,0,0.3-0.2,0.3-0.3S12.2,15.3,12,15.3z"/>
</g>
</svg>
