<?xml version="1.0" encoding="utf-8"?>
<!-- Generator: Adobe Illustrator 21.1.0, SVG Export Plug-In . SVG Version: 6.00 Build 0)  -->
<!DOCTYPE svg PUBLIC "-//W3C//DTD SVG 1.1//EN" "http://www.w3.org/Graphics/SVG/1.1/DTD/svg11.dtd">
<svg version="1.1" id="Layer_1" xmlns="http://www.w3.org/2000/svg" xmlns:xlink="http://www.w3.org/1999/xlink" x="0px" y="0px"
	 viewBox="0 0 65 65" style="enable-background:new 0 0 65 65;" xml:space="preserve">
<style type="text/css">
	.st0{fill:none;stroke:#000000;stroke-width:3;stroke-linejoin:round;stroke-miterlimit:10;}
</style>
<g>
	<ellipse class="st0" cx="32.5" cy="22.7" rx="2.9" ry="1.9"/>
	<path class="st0" d="M63,22.1l-30.4-8.7c-0.1,0-0.2,0-0.4,0L2,22.1c-0.6,0.2-0.6,1,0,1.2L32.3,32c0.1,0,0.2,0,0.4,0L63,23.3
		C63.7,23.1,63.7,22.2,63,22.1z"/>
	<polyline class="st0" points="29.8,23.4 18.7,27.6 18.7,35.1 	"/>
	<path class="st0" d="M22.9,51.7l-2.1-11.5c0.6-0.5,0.9-1.3,0.9-2.1c0-1.6-1.3-3-3-3c-1.6,0-3,1.3-3,3c0,0.8,0.3,1.6,0.9,2.1
		l-2.1,11.5H22.9z"/>
	<path class="st0" d="M20.8,40.4c3.8,1.4,7.6,2.6,11,3.2c0.4,0.1,0.8,0.1,1.2,0c5.4-1,11.1-2.9,17-5.6c1.3-0.6,2.1-2,2-3.5
		c-0.3-2.7-1.2-5.2-2.6-7.4L32.7,32c-0.1,0-0.2,0-0.4,0l-16.8-4.8c-1.3,2.2-2.2,4.7-2.5,7.4c-0.2,1.5,0.6,2.9,2,3.5
		c0.3,0.1,0.5,0.2,0.8,0.3"/>
</g>
</svg>
