<?xml version="1.0" encoding="utf-8"?>
<!-- Generator: Adobe Illustrator 21.1.0, SVG Export Plug-In . SVG Version: 6.00 Build 0)  -->
<!DOCTYPE svg PUBLIC "-//W3C//DTD SVG 1.1//EN" "http://www.w3.org/Graphics/SVG/1.1/DTD/svg11.dtd">
<svg version="1.1" id="Layer_1" xmlns="http://www.w3.org/2000/svg" xmlns:xlink="http://www.w3.org/1999/xlink" x="0px" y="0px"
	 viewBox="0 0 128 128" style="enable-background:new 0 0 128 128;" xml:space="preserve">
<g id="Layer_1">
	<g>
		<g>
			<rect x="66.6" y="28.6" width="9.7" height="9.7"/>
			<rect x="50.9" y="44.4" width="9.7" height="9.7"/>
			<rect x="66.6" y="44.4" width="9.7" height="9.7"/>
			<rect x="50.9" y="28.6" width="9.7" height="9.7"/>
			<path d="M128.6,61.1l-63-59.7l-0.5-0.5c-0.1,0-0.2-0.1-0.3-0.2c0,0-0.1,0-0.1-0.1c-0.1,0-0.1,0-0.2-0.1c-0.1,0-0.1,0-0.1,0
				c-0.1,0-0.2,0-0.3-0.1c-0.1,0-0.1,0-0.1,0l-1.2,0l-0.4,0c-0.1,0-0.2,0.1-0.4,0.1c0,0-0.1,0-0.1,0c-0.1,0-0.2,0.1-0.3,0.1
				c0,0-0.1,0.1-0.2,0.1c-0.1,0.1-0.2,0.1-0.3,0.2C61,0.9,61,1,60.9,1c0,0.2-0.2,0.3-0.3,0.4L-0.6,59.5c-1.4,1.4-1.5,3.7-0.2,5.1
				c0.8,0.8,1.7,1.2,2.6,1.2c0.9,0,1.8-0.4,2.5-1l8.2-7.7V124c0,1.1,0.4,2.1,1.3,2.8c0.6,0.5,1.4,0.8,2.3,0.8c0.2,0,0.4,0,0.6-0.1
				c9.6-1.7,19.2-4,28.3-6.7c1.9-0.5,3-2.6,2.4-4.5c-0.4-1.5-1.9-2.6-3.5-2.6c-0.3,0-0.7,0-1,0.1c-7.2,2.2-14.9,4.1-22.7,5.6
				l-0.5,0.1l0-68.7l0-0.7L63.2,8.9l45.2,42.8v67.8l-0.5-0.1c-12.8-2.6-24.3-5.8-34.3-9.5l-0.8-0.3l0.8-0.4
				c26.5-14.5,25-29.6,21.8-37.4c-1.9-4.7-6.4-8-12.1-8.7c-0.7-0.1-1.4-0.1-2.2-0.1c-5.8,0-12,2.8-16.8,7.6L64.1,71l-0.3-0.3
				c-4.8-4.8-11-7.6-16.8-7.6c-0.7,0-1.5,0-2.2,0.1c-5.6,0.7-10.1,3.9-12.1,8.7c-2.6,6.4-2.2,13,1.2,19.1
				c8.7,15.9,36.9,29.2,77.4,36.6c0.1,0,0.3,0,0.4,0.1c0.1,0,0.2,0,0.3,0c0.8,0,1.6-0.3,2.3-0.8c0.8-0.7,1.3-1.7,1.3-2.8V58.6
				l8.2,7.7c0.7,0.6,1.6,1,2.5,1c1,0,1.9-0.4,2.6-1.2C130.2,64.7,130,62.4,128.6,61.1z M64.3,106l-0.1-0.1
				C51.7,100.2,43.6,94,40,87.5c-2.3-4.3-2.6-8.5-0.8-12.8c0.9-2.3,3.3-3.8,6.3-4.1c0.4-0.1,0.9-0.1,1.3-0.1
				c5.1,0,10.4,3.1,14.2,8.4l0,0.1c0,0,0.1,0,0.1,0.1l0.4,0.4l0.1,0.1c0.1,0,0.1,0.1,0.2,0.1c0.1,0,0.2,0.1,0.3,0.2l0,0.1
				c0,0,0.1,0,0.2,0.1l0.1,0l0.1,0.1c0,0,0.1,0.1,0.1,0.1c0,0,0.1,0,0.1,0c0.1,0,0.1,0,0.1,0c0.1,0,0.2,0,0.4,0.1h1.2l0.4,0
				c0.1,0,0.2-0.1,0.4-0.1c0,0,0.1,0,0.1,0c0.1,0,0.2-0.1,0.2-0.1c0,0,0,0,0,0c0,0,0.1-0.1,0.1-0.1c0.1-0.1,0.3-0.2,0.4-0.2
				c0,0,0,0,0.1,0l0.1-0.2h0.1c0,0,0,0,0.1,0l0.2-0.2l0.2-0.2c0.1-0.2,0.2-0.3,0.3-0.3c3.8-5.2,9.1-8.3,14.1-8.3
				c0.5,0,0.9,0,1.3,0.1c3,0.3,5.3,1.9,6.3,4.1c5.9,14.5-12.9,25.8-24.6,31.3L64.3,106z"/>
		</g>
	</g>
</g>
</svg>
