<?xml version="1.0" encoding="utf-8"?>
<!-- Generator: Adobe Illustrator 21.1.0, SVG Export Plug-In . SVG Version: 6.00 Build 0)  -->
<svg version="1.1" id="Layer_1" xmlns="http://www.w3.org/2000/svg" xmlns:xlink="http://www.w3.org/1999/xlink" x="0px" y="0px"
	 viewBox="0 0 612 792" style="enable-background:new 0 0 612 792;" xml:space="preserve">
<style type="text/css">
	.st0{fill:#FFFFFF;}
</style>
<g>
	<path class="st0" d="M369.4,237.4l-23.4-52c-84-0.5-121.9,105.9-68,145.1C266.2,289.2,301.9,222.1,369.4,237.4L369.4,237.4z"/>
	<path class="st0" d="M238,262.3L186,286c-0.5,83.9,105.9,121.7,145.1,68C289.8,365.6,222.6,329.9,238,262.3L238,262.3z"/>
	<path class="st0" d="M262.8,393.9l23.7,52c83.9,0.4,121.7-106,68-145.3C366.1,342,330.4,409.1,262.8,393.9L262.8,393.9z"/>
	<path class="st0" d="M394.5,368.8l52-23.4c0.4-84-106-121.9-145.4-68C342.6,265.6,409.7,301.3,394.5,368.8L394.5,368.8z"/>
	<path class="st0" d="M316.2,338.2c12.5,0.1,22.6-10.1,22.6-22.6c0.1-12.6-10.1-22.8-22.6-22.8c-12.6,0.1-22.8,10.2-22.8,22.8
		C293.5,328.1,303.6,338.3,316.2,338.2L316.2,338.2z"/>
</g>
</svg>
