<?xml version="1.0" encoding="utf-8"?>
<!-- Generator: Adobe Illustrator 21.1.0, SVG Export Plug-In . SVG Version: 6.00 Build 0)  -->
<svg version="1.1" id="Layer_1" xmlns="http://www.w3.org/2000/svg" xmlns:xlink="http://www.w3.org/1999/xlink" x="0px" y="0px"
	 viewBox="0 0 500 500" style="enable-background:new 0 0 500 500;" xml:space="preserve">
<style type="text/css">
	.st0{fill:#FFFFFF;}
</style>
<g>
	<path class="st0" d="M349.9,104.5l-44-97.8C147.8,5.8,76.6,205.8,178,279.6C155.8,201.8,223.1,75.7,349.9,104.5L349.9,104.5z"/>
	<path class="st0" d="M102.8,151.3L5,195.8c-0.9,157.8,199.1,229,272.9,127.9C200.1,345.6,74,278.4,102.8,151.3L102.8,151.3z"/>
	<path class="st0" d="M149.6,398.8l44.5,97.8c157.8,0.7,229-199.4,127.9-273.4C343.9,301.2,276.7,427.5,149.6,398.8L149.6,398.8z"/>
	<path class="st0" d="M397.2,351.6l97.8-44c0.7-158-199.4-229.3-273.4-127.9C299.6,157.6,425.8,224.6,397.2,351.6L397.2,351.6z"/>
	<path class="st0" d="M250,294.1c23.5,0.1,42.5-18.9,42.4-42.4c0.1-23.7-18.9-42.8-42.4-42.9c-23.7,0.1-42.8,19.2-42.9,42.9
		C207.2,275.2,226.3,294.3,250,294.1L250,294.1z"/>
</g>
</svg>
