<?xml version="1.0" encoding="utf-8"?>
<!-- Generator: Adobe Illustrator 21.1.0, SVG Export Plug-In . SVG Version: 6.00 Build 0)  -->
<!DOCTYPE svg PUBLIC "-//W3C//DTD SVG 1.1//EN" "http://www.w3.org/Graphics/SVG/1.1/DTD/svg11.dtd">
<svg version="1.1" id="Layer_1" xmlns="http://www.w3.org/2000/svg" xmlns:xlink="http://www.w3.org/1999/xlink" x="0px" y="0px"
	 viewBox="0 0 904.9 260.4" style="enable-background:new 0 0 904.9 260.4;" xml:space="preserve">
<style type="text/css">
	.st0{fill:#00502F;}
	.st1{fill:#649785;}
	.st2{fill:#3E846C;}
	.st3{fill:#00674E;}
</style>
<g>
	<path class="st0" d="M183.3,52L159.9,0c-84-0.5-121.9,105.9-68,145.1C80.2,103.7,115.9,36.6,183.3,52L183.3,52z"/>
	<path class="st1" d="M52,76.8L0,100.5c-0.5,83.9,105.9,121.7,145.1,68C103.7,180.1,36.6,144.4,52,76.8L52,76.8z"/>
	<path class="st2" d="M76.8,208.5l23.7,52c83.9,0.4,121.7-106,68-145.3C180.1,156.6,144.4,223.7,76.8,208.5L76.8,208.5z"/>
	<path class="st3" d="M208.5,183.3l52-23.4c0.4-84-106-121.9-145.4-68C156.6,80.2,223.7,115.9,208.5,183.3L208.5,183.3z"/>
	<path class="st0" d="M130.2,152.8c12.5,0.1,22.6-10.1,22.6-22.6c0.1-12.6-10.1-22.8-22.6-22.8c-12.6,0.1-22.8,10.2-22.8,22.8
		C107.4,142.7,117.6,152.9,130.2,152.8L130.2,152.8z"/>
</g>
<g>
	<path class="st2" d="M338.6,7.9h6.9v51.4h-7.4v-40l-15.8,19.9h-1.4l-16-19.9v40h-7.4V7.9h7l17.1,21.1L338.6,7.9z"/>
	<path class="st2" d="M375.5,7.6h5.2l23.1,51.7h-7.5l-6.9-15.2h-21.9L361,59.4h-7.6L375.5,7.6z M386.3,37.6L378,19l-7.7,18.6H386.3z
		"/>
	<path class="st2" d="M424.6,37.8l-5.6-3.4c-3.5-2.1-6-4.3-7.5-6.3c-1.5-2.1-2.2-4.5-2.2-7.2c0-4.1,1.4-7.3,4.2-9.9
		c2.8-2.5,6.5-3.8,11-3.8c4.3,0,8.2,1.2,11.8,3.6v8.4c-3.7-3.6-7.7-5.3-12-5.3c-2.4,0-4.4,0.6-5.9,1.7c-1.5,1.1-2.3,2.5-2.3,4.3
		c0,1.5,0.6,3,1.7,4.3c1.1,1.3,3,2.8,5.5,4.2l5.6,3.3c6.3,3.7,9.4,8.5,9.4,14.3c0,4.1-1.4,7.5-4.1,10.1c-2.8,2.6-6.4,3.9-10.8,3.9
		c-5.1,0-9.7-1.6-13.9-4.7v-9.4c4,5,8.6,7.6,13.8,7.6c2.3,0,4.2-0.6,5.8-1.9c1.5-1.3,2.3-2.9,2.3-4.8
		C431.4,43.6,429.1,40.6,424.6,37.8z"/>
	<path class="st2" d="M461.6,37.8l-5.6-3.4c-3.5-2.1-6-4.3-7.5-6.3c-1.5-2.1-2.2-4.5-2.2-7.2c0-4.1,1.4-7.3,4.2-9.9
		c2.8-2.5,6.5-3.8,11-3.8c4.3,0,8.2,1.2,11.8,3.6v8.4c-3.7-3.6-7.7-5.3-12-5.3c-2.4,0-4.4,0.6-5.9,1.7c-1.5,1.1-2.3,2.5-2.3,4.3
		c0,1.5,0.6,3,1.7,4.3c1.1,1.3,3,2.8,5.5,4.2l5.6,3.3c6.3,3.7,9.4,8.5,9.4,14.3c0,4.1-1.4,7.5-4.1,10.1c-2.8,2.6-6.4,3.9-10.8,3.9
		c-5.1,0-9.7-1.6-13.9-4.7v-9.4c4,5,8.6,7.6,13.8,7.6c2.3,0,4.2-0.6,5.8-1.9c1.5-1.3,2.3-2.9,2.3-4.8
		C468.4,43.6,466.2,40.6,461.6,37.8z"/>
	<path class="st2" d="M502.4,7.6h5.2l23.1,51.7h-7.5l-6.9-15.2h-21.9l-6.4,15.2h-7.6L502.4,7.6z M513.2,37.6L504.9,19l-7.7,18.6
		H513.2z"/>
	<path class="st2" d="M580,47.5v8.1c-5.4,2.9-11.6,4.4-18.7,4.4c-5.7,0-10.6-1.2-14.6-3.5c-4-2.3-7.2-5.5-9.5-9.5
		c-2.3-4.1-3.5-8.4-3.5-13.1c0-7.5,2.7-13.8,8-18.9c5.3-5.1,11.9-7.7,19.8-7.7c5.4,0,11.4,1.4,18,4.2v7.9c-6-3.4-11.9-5.2-17.6-5.2
		c-5.9,0-10.8,1.9-14.7,5.6c-3.9,3.7-5.8,8.4-5.8,14c0,5.6,1.9,10.3,5.7,13.9c3.8,3.6,8.7,5.4,14.7,5.4
		C568,53.2,574.1,51.3,580,47.5z"/>
	<path class="st2" d="M627.9,7.9h7.4v51.4h-7.4V37H599v22.4h-7.4V7.9h7.4v22.2h28.9V7.9z"/>
	<path class="st2" d="M684.9,7.9h7.4v29.2c0,4-0.3,6.9-0.9,8.9c-0.6,2-1.3,3.7-2.1,5c-0.8,1.3-1.9,2.5-3.1,3.6
		c-4.1,3.5-9.4,5.3-16,5.3c-6.7,0-12.1-1.7-16.1-5.2c-1.2-1.1-2.3-2.3-3.1-3.6c-0.8-1.3-1.5-3-2.1-4.9c-0.6-1.9-0.8-5-0.8-9.1V7.9
		h7.4v29.2c0,4.8,0.6,8.2,1.7,10.1c1.1,1.9,2.8,3.4,5,4.5c2.3,1.1,4.9,1.7,8,1.7c4.4,0,7.9-1.1,10.7-3.4c1.4-1.2,2.5-2.7,3.1-4.3
		c0.6-1.7,1-4.5,1-8.6V7.9z"/>
	<path class="st2" d="M717.7,37.8l-5.6-3.4c-3.5-2.1-6-4.3-7.5-6.3c-1.5-2.1-2.2-4.5-2.2-7.2c0-4.1,1.4-7.3,4.2-9.9s6.5-3.8,11-3.8
		c4.3,0,8.2,1.2,11.8,3.6v8.4c-3.7-3.6-7.7-5.3-12-5.3c-2.4,0-4.4,0.6-5.9,1.7c-1.5,1.1-2.3,2.5-2.3,4.3c0,1.5,0.6,3,1.7,4.3
		c1.1,1.3,3,2.8,5.5,4.2l5.6,3.3c6.3,3.7,9.4,8.5,9.4,14.3c0,4.1-1.4,7.5-4.1,10.1c-2.8,2.6-6.4,3.9-10.8,3.9
		c-5.1,0-9.7-1.6-13.9-4.7v-9.4c4,5,8.6,7.6,13.8,7.6c2.3,0,4.2-0.6,5.8-1.9c1.5-1.3,2.3-2.9,2.3-4.8
		C724.5,43.6,722.2,40.6,717.7,37.8z"/>
	<path class="st2" d="M742,7.9h29.2v6.6h-21.8v15.7h21.1v6.6h-21.1v16h22.5v6.6H742V7.9z"/>
	<path class="st2" d="M777.8,7.9h43v6.6h-17.9v45h-7.4v-45h-17.6V7.9z"/>
	<path class="st2" d="M825.9,7.9h43v6.6h-17.9v45h-7.4v-45h-17.6V7.9z"/>
	<path class="st2" d="M891.1,37.8l-5.6-3.4c-3.5-2.1-6-4.3-7.5-6.3c-1.5-2.1-2.2-4.5-2.2-7.2c0-4.1,1.4-7.3,4.2-9.9
		c2.8-2.5,6.5-3.8,11-3.8c4.3,0,8.2,1.2,11.8,3.6v8.4c-3.7-3.6-7.7-5.3-12-5.3c-2.4,0-4.4,0.6-5.9,1.7c-1.5,1.1-2.3,2.5-2.3,4.3
		c0,1.5,0.6,3,1.7,4.3c1.1,1.3,3,2.8,5.5,4.2l5.6,3.3c6.3,3.7,9.4,8.5,9.4,14.3c0,4.1-1.4,7.5-4.1,10.1c-2.8,2.6-6.4,3.9-10.8,3.9
		c-5.1,0-9.7-1.6-13.9-4.7v-9.4c4,5,8.6,7.6,13.8,7.6c2.3,0,4.2-0.6,5.8-1.9c1.5-1.3,2.3-2.9,2.3-4.8
		C897.8,43.6,895.6,40.6,891.1,37.8z"/>
	<path class="st0" d="M320.5,131l-6.8-4.2c-4.3-2.6-7.3-5.2-9.2-7.7c-1.8-2.5-2.7-5.5-2.7-8.8c0-5,1.7-9,5.2-12.1
		c3.4-3.1,7.9-4.6,13.4-4.6c5.3,0,10.1,1.5,14.4,4.4v10.2c-4.5-4.4-9.4-6.5-14.6-6.5c-2.9,0-5.4,0.7-7.2,2c-1.9,1.4-2.8,3.1-2.8,5.2
		c0,1.9,0.7,3.6,2.1,5.3c1.4,1.6,3.6,3.4,6.7,5.2l6.9,4.1c7.7,4.6,11.5,10.4,11.5,17.5c0,5-1.7,9.1-5.1,12.3
		c-3.4,3.2-7.8,4.7-13.2,4.7c-6.2,0-11.9-1.9-17-5.7v-11.4c4.9,6.2,10.5,9.2,16.9,9.2c2.8,0,5.2-0.8,7-2.4c1.9-1.6,2.8-3.5,2.8-5.9
		C328.8,138.1,326.1,134.4,320.5,131z"/>
	<path class="st0" d="M350.4,94.5h35.6v8h-26.6v19.2h25.7v8.1h-25.7v19.5h27.5v8h-36.5V94.5z"/>
	<path class="st0" d="M449.7,94.5h8.6v62.9h-7.7l-42-48.4v48.4H400V94.5h7.3l42.4,48.8V94.5z"/>
	<path class="st0" d="M475.1,94.5h9v62.9h-9V94.5z"/>
	<path class="st0" d="M532.1,93.6c9.7,0,17.8,3.1,24.3,9.2c6.5,6.2,9.7,13.9,9.7,23.1c0,9.3-3.3,16.9-9.8,23
		c-6.5,6.1-14.7,9.1-24.7,9.1c-9.5,0-17.4-3-23.7-9.1c-6.3-6.1-9.5-13.7-9.5-22.8c0-9.4,3.2-17.2,9.5-23.3
		C514.4,96.6,522.4,93.6,532.1,93.6z M532.5,102.1c-7.2,0-13.1,2.3-17.7,6.8c-4.6,4.5-6.9,10.2-6.9,17.2c0,6.8,2.3,12.4,7,16.9
		c4.6,4.5,10.5,6.8,17.4,6.8c7,0,12.9-2.3,17.6-6.9s7-10.3,7-17.1c0-6.7-2.3-12.3-7-16.8C545.1,104.4,539.3,102.1,532.5,102.1z"/>
	<path class="st0" d="M580.6,157.3V94.5h15.8c6.4,0,11.4,1.6,15.1,4.7c3.7,3.2,5.6,7.4,5.6,12.8c0,3.7-0.9,6.8-2.7,9.5
		c-1.8,2.7-4.5,4.7-7.9,6c2,1.3,4,3.1,5.9,5.4c1.9,2.3,4.6,6.3,8.1,11.9c2.2,3.6,3.9,6.3,5.3,8.1l3.3,4.5h-10.7l-2.7-4.1
		c-0.1-0.1-0.3-0.4-0.5-0.8l-1.8-2.5l-2.8-4.6l-3-4.9c-1.9-2.6-3.6-4.6-5.1-6.2c-1.5-1.5-2.9-2.6-4.2-3.3c-1.2-0.7-3.3-1-6.3-1h-2.3
		v27.4H580.6z M592.3,102.1h-2.7V122h3.4c4.6,0,7.7-0.4,9.4-1.2c1.7-0.8,3-2,4-3.5c0.9-1.6,1.4-3.4,1.4-5.4c0-2-0.5-3.8-1.6-5.4
		c-1.1-1.6-2.5-2.7-4.4-3.4C599.9,102.4,596.8,102.1,592.3,102.1z"/>
	<path class="st0" d="M720,142.8v9.9c-6.6,3.6-14.2,5.4-22.9,5.4c-7,0-13-1.4-17.9-4.2c-4.9-2.8-8.8-6.7-11.6-11.7
		c-2.9-5-4.3-10.3-4.3-16.1c0-9.2,3.3-16.8,9.8-23.1c6.5-6.2,14.6-9.4,24.1-9.4c6.6,0,13.9,1.7,22,5.2v9.7
		c-7.4-4.2-14.5-6.3-21.6-6.3c-7.2,0-13.2,2.3-17.9,6.8c-4.8,4.5-7.1,10.2-7.1,17.1c0,6.9,2.3,12.6,7,17c4.7,4.4,10.7,6.7,18,6.7
		C705.3,149.8,712.7,147.4,720,142.8z"/>
	<path class="st0" d="M759.2,94.1h6.3l28.2,63.2h-9.2l-8.4-18.6h-26.8l-7.9,18.6h-9.3L759.2,94.1z M772.4,130.7l-10.1-22.8
		l-9.4,22.8H772.4z"/>
	<path class="st0" d="M806.6,157.3V94.5h15.8c6.4,0,11.4,1.6,15.1,4.7c3.7,3.2,5.6,7.4,5.6,12.8c0,3.7-0.9,6.8-2.7,9.5
		c-1.8,2.7-4.5,4.7-7.9,6c2,1.3,4,3.1,5.9,5.4c1.9,2.3,4.6,6.3,8.1,11.9c2.2,3.6,3.9,6.3,5.3,8.1l3.3,4.5h-10.7l-2.7-4.1
		c-0.1-0.1-0.3-0.4-0.5-0.8l-1.8-2.5l-2.8-4.6l-3-4.9c-1.9-2.6-3.6-4.6-5.1-6.2c-1.5-1.5-2.9-2.6-4.2-3.3c-1.2-0.7-3.3-1-6.3-1h-2.3
		v27.4H806.6z M818.3,102.1h-2.7V122h3.4c4.6,0,7.7-0.4,9.4-1.2c1.7-0.8,3-2,4-3.5c0.9-1.6,1.4-3.4,1.4-5.4c0-2-0.5-3.8-1.6-5.4
		c-1.1-1.6-2.5-2.7-4.4-3.4C825.9,102.4,822.7,102.1,818.3,102.1z"/>
	<path class="st0" d="M867.7,94.5h35.6v8h-26.6v19.2h25.7v8.1h-25.7v19.5h27.5v8h-36.5V94.5z"/>
	<path class="st2" d="M304.4,196.5h30.5v7.3h-22.3v16h22.3v7.3h-22.3v26.6h-8.2V196.5z"/>
	<path class="st2" d="M379.3,195.7c8.8,0,16.2,2.8,22.1,8.4c5.9,5.6,8.8,12.6,8.8,21c0,8.4-3,15.4-8.9,20.9
		c-5.9,5.5-13.4,8.3-22.4,8.3c-8.6,0-15.8-2.8-21.5-8.3c-5.7-5.5-8.6-12.4-8.6-20.8c0-8.5,2.9-15.6,8.7-21.2
		C363.1,198.5,370.4,195.7,379.3,195.7z M379.6,203.5c-6.5,0-11.9,2-16.1,6.1c-4.2,4.1-6.3,9.3-6.3,15.7c0,6.2,2.1,11.3,6.3,15.4
		c4.2,4.1,9.5,6.1,15.9,6.1c6.4,0,11.7-2.1,16-6.3c4.3-4.2,6.4-9.4,6.4-15.6c0-6.1-2.1-11.1-6.4-15.3
		C391.1,205.5,385.8,203.5,379.6,203.5z"/>
	<path class="st2" d="M467.5,196.5h8.2V229c0,4.4-0.3,7.7-1,9.9c-0.6,2.2-1.4,4.1-2.4,5.6c-0.9,1.5-2.1,2.8-3.5,4
		c-4.5,3.9-10.4,5.9-17.8,5.9c-7.4,0-13.4-1.9-17.9-5.8c-1.4-1.2-2.5-2.5-3.5-4c-0.9-1.5-1.7-3.3-2.3-5.5c-0.6-2.2-0.9-5.5-0.9-10.1
		v-32.4h8.2V229c0,5.4,0.6,9.1,1.8,11.2c1.2,2.1,3.1,3.8,5.6,5.1c2.5,1.3,5.5,1.9,8.9,1.9c4.9,0,8.8-1.3,11.9-3.8
		c1.6-1.4,2.8-3,3.5-4.8c0.7-1.9,1.1-5,1.1-9.5V196.5z"/>
	<path class="st2" d="M540.1,196.5h7.8v57.2h-7l-38.2-44v44h-7.7v-57.2h6.6l38.5,44.4V196.5z"/>
	<path class="st2" d="M567.7,253.6v-57.1H587c7.8,0,13.9,1.2,18.5,3.5c4.5,2.3,8.1,5.8,10.8,10.3c2.7,4.5,4,9.5,4,14.8
		c0,3.8-0.7,7.5-2.2,11c-1.5,3.5-3.6,6.6-6.3,9.2c-2.8,2.7-6,4.8-9.7,6.2c-2.2,0.8-4.1,1.4-5.9,1.7c-1.8,0.3-5.2,0.4-10.3,0.4H567.7
		z M586.1,203.8h-10.2v42.5h10.5c4.1,0,7.3-0.3,9.5-0.8c2.3-0.6,4.2-1.3,5.7-2.1c1.5-0.9,2.9-1.9,4.2-3.2c4-4.1,6.1-9.3,6.1-15.5
		c0-6.1-2.1-11.1-6.2-15c-1.5-1.4-3.3-2.6-5.3-3.6c-2-0.9-3.9-1.5-5.6-1.8C592.9,203.9,590.1,203.8,586.1,203.8z"/>
	<path class="st2" d="M651.7,196.2h5.8l25.6,57.5h-8.4l-7.6-16.9h-24.4l-7.1,16.9h-8.4L651.7,196.2z M663.7,229.5l-9.2-20.7
		l-8.6,20.7H663.7z"/>
	<path class="st2" d="M683.6,196.4h47.8v7.3h-19.9v50h-8.2v-50h-19.6V196.4z"/>
	<path class="st2" d="M746.7,196.5h8.2v57.2h-8.2V196.5z"/>
	<path class="st2" d="M803.2,195.7c8.8,0,16.2,2.8,22.1,8.4c5.9,5.6,8.8,12.6,8.8,21c0,8.4-3,15.4-8.9,20.9
		c-5.9,5.5-13.4,8.3-22.4,8.3c-8.6,0-15.8-2.8-21.5-8.3c-5.7-5.5-8.6-12.4-8.6-20.8c0-8.5,2.9-15.6,8.7-21.2
		C787.1,198.5,794.4,195.7,803.2,195.7z M803.5,203.5c-6.5,0-11.9,2-16.1,6.1c-4.2,4.1-6.3,9.3-6.3,15.7c0,6.2,2.1,11.3,6.3,15.4
		c4.2,4.1,9.5,6.1,15.9,6.1c6.4,0,11.7-2.1,16-6.3c4.3-4.2,6.4-9.4,6.4-15.6c0-6.1-2.1-11.1-6.4-15.3
		C815,205.5,809.8,203.5,803.5,203.5z"/>
	<path class="st2" d="M897.1,196.5h7.8v57.2h-7l-38.2-44v44h-7.7v-57.2h6.6l38.5,44.4V196.5z"/>
</g>
</svg>
