<?xml version="1.0" encoding="utf-8"?>
<!-- Generator: Adobe Illustrator 21.0.2, SVG Export Plug-In . SVG Version: 6.00 Build 0)  -->
<svg version="1.1"
	 id="Layer_1" xmlns:cc="http://creativecommons.org/ns#" xmlns:dc="http://purl.org/dc/elements/1.1/" xmlns:inkscape="http://www.inkscape.org/namespaces/inkscape" xmlns:rdf="http://www.w3.org/1999/02/22-rdf-syntax-ns#" xmlns:sodipodi="http://sodipodi.sourceforge.net/DTD/sodipodi-0.dtd" xmlns:svg="http://www.w3.org/2000/svg"
	 xmlns="http://www.w3.org/2000/svg" xmlns:xlink="http://www.w3.org/1999/xlink" x="0px" y="0px" viewBox="0 0 100 100"
	 style="enable-background:new 0 0 100 100;" xml:space="preserve">
<style type="text/css">
	.st0{fill:#FFFFFF;stroke:#FFFFFF;stroke-miterlimit:10;}
</style>
<g transform="translate(0,-952.36218)">
	<path class="st0" d="M26,965.4c-1.1,0-2,1.1-2,2v38H12c-1.1,0-2,1.1-2,2v23c0,5,4,9,9,9h62c5,0,9-4,9-9v-63c0-1-1-2-2-2H26z
		 M28,969.4h58v61c0,2.8-2.2,5-5,5H26.2c1-1.5,1.8-3.1,1.8-5V969.4z M36,975.4c-1.1,0-2,1.1-2,2v14c0,1,1,2,2,2h20c1,0,2-1,2-2v-14
		c0-1-1-2-2-2H36z M64,977.4c-1.1,0-2,0.9-2,2s0.9,2,2,2h14c1.1,0,2-0.9,2-2s-0.9-2-2-2H64z M38,979.4h16v10H38V979.4z M64,987.4
		c-1.1,0-2,0.9-2,2s0.9,2,2,2h14c1.1,0,2-0.9,2-2s-0.9-2-2-2H64z M14,1009.4h10v21c0,2.8-2.2,5-5,5s-5-2.2-5-5V1009.4z M36,999.4
		c-1.1,0-2,0.9-2,2s0.9,2,2,2h42c1.1,0,2-0.9,2-2s-0.9-2-2-2H36z M36,1010.4c-1.1,0-2,0.9-2,2s0.9,2,2,2h42c1.1,0,2-0.9,2-2
		s-0.9-2-2-2H36z M36,1021.4c-1.1,0-2,0.9-2,2s0.9,2,2,2h42c1.1,0,2-0.9,2-2s-0.9-2-2-2H36z"/>
</g>
</svg>
