<?xml version="1.0" encoding="utf-8"?>
<!-- Generator: Adobe Illustrator 21.1.0, SVG Export Plug-In . SVG Version: 6.00 Build 0)  -->
<!DOCTYPE svg PUBLIC "-//W3C//DTD SVG 1.1//EN" "http://www.w3.org/Graphics/SVG/1.1/DTD/svg11.dtd">
<svg version="1.1" id="Layer_1" xmlns="http://www.w3.org/2000/svg" xmlns:xlink="http://www.w3.org/1999/xlink" x="0px" y="0px"
	 viewBox="0 0 97.2 97.2" style="enable-background:new 0 0 97.2 97.2;" xml:space="preserve">
<g id="Layer_1">
	<g>
		<g>
			<path d="M21.9,88.1c-0.8,0-1.5-0.3-2-0.9c-0.5-0.5-0.7-1.2-0.6-1.9c0.1-0.7,0.4-1.3,0.9-1.8c2.9-2.5,7.1-3.8,11.9-3.8h3.2l4.4-6
				c0.5-0.7,1.3-1.1,2.1-1.1c0.6,0,1.1,0.2,1.5,0.5c0.6,0.4,0.9,1,1,1.7c0.1,0.7-0.1,1.4-0.5,1.9l-5.1,7c-0.5,0.7-1.3,1.1-2.1,1.1
				h-4.5c-3.6,0-6.6,0.9-8.6,2.6C23.2,87.9,22.6,88.1,21.9,88.1z"/>
		</g>
		<g>
			<path d="M75.7,88.4c-0.7,0-1.3-0.3-1.8-0.7c-1.9-1.8-4.9-2.8-8.6-2.8h-4.5c-0.8,0-1.6-0.4-2.1-1l-5.3-7c-0.4-0.6-0.6-1.2-0.5-1.9
				c0.1-0.7,0.5-1.3,1-1.7c0.5-0.3,1-0.5,1.5-0.5c0.8,0,1.6,0.4,2.1,1.1l4.5,6h3.2c5.1,0,9.3,1.5,12.2,4.2c0.5,0.5,0.8,1.1,0.8,1.8
				c0,0.7-0.2,1.4-0.7,1.9C77,88.1,76.4,88.4,75.7,88.4z"/>
		</g>
		<g>
			<path d="M48.6,79.1c-9.9,0-18.1-12.2-18.4-22.3c-4.2-10.1-1.3-19.3-0.6-21.2c0.1-5.6,1.9-12,15.3-12.2c3.4-2,7.1-3.1,10.4-3.1
				c4.5,0,8.3,1.9,10.7,5.3c2.1,3.1,2.8,6.9,1.7,10.6c1,3.8,3.7,15.9-0.8,21.2C66.3,67.2,58.1,79.1,48.6,79.1z M55.3,25.4
				c-2.6,0-5.4,0.9-8.3,2.8c-0.4,0.3-0.9,0.4-1.4,0.4c-10.8,0-10.8,3.6-10.8,7.5c0,0.3-0.1,0.7-0.2,1c0,0.1-3.5,8.7,0.6,18.1
				c0.1,0.3,0.2,0.7,0.2,1c0,8.5,6.8,17.6,13.2,17.6c6.4,0,13.2-9,13.2-17.6c0-0.8,0.3-1.5,0.9-2c2.7-2.2,1.5-11.7-0.2-17.5
				c-0.2-0.5-0.1-1.1,0.1-1.6c0.8-2.2,0.5-4.7-0.8-6.6C60.3,26.5,58.1,25.4,55.3,25.4z"/>
		</g>
		<g>
			<path d="M48.6,97.2C21.8,97.2,0,75.4,0,48.6C0,21.8,21.8,0,48.6,0c26.8,0,48.6,21.8,48.6,48.6C97.2,75.4,75.4,97.2,48.6,97.2z
				 M48.6,5.2C24.7,5.2,5.2,24.7,5.2,48.6S24.7,92,48.6,92S92,72.5,92,48.6S72.5,5.2,48.6,5.2z"/>
		</g>
	</g>
</g>
</svg>
