<?xml version="1.0" encoding="utf-8"?>
<!-- Generator: Adobe Illustrator 21.1.0, SVG Export Plug-In . SVG Version: 6.00 Build 0)  -->
<svg version="1.1" id="Layer_1" xmlns="http://www.w3.org/2000/svg" xmlns:xlink="http://www.w3.org/1999/xlink" x="0px" y="0px"
	 viewBox="0 0 100 100" style="enable-background:new 0 0 100 100;" xml:space="preserve">
<style type="text/css">
	.st0{fill:#FFFFFF;}
</style>
<g>
	<path class="st0" d="M90.1,85.5L69.9,66.1c4.9-6.1,7.8-13.9,7.8-22.3C77.7,24.1,61.6,8,41.8,8S6,24.1,6,43.8s16.1,35.8,35.8,35.8
		c8.5,0,16.3-3,22.4-7.9l20.3,19.5c0.8,0.7,1.8,1.1,2.8,1.1c1.1,0,2.1-0.4,2.9-1.2C91.8,89.5,91.7,87,90.1,85.5z M62.3,62.7
		c-0.4,0.2-0.7,0.4-1,0.8c-0.3,0.3-0.5,0.6-0.6,0.9c-5,4.6-11.6,7.4-18.8,7.4C26.5,71.7,14,59.2,14,43.8S26.5,16,41.8,16
		s27.8,12.5,27.8,27.8C69.7,51.1,66.9,57.7,62.3,62.7z"/>
	<path class="st0" d="M41.8,20.6c-1.1,0-2,0.9-2,2s0.9,2,2,2c10.6,0,19.2,8.6,19.2,19.2c0,1.1,0.9,2,2,2s2-0.9,2-2
		C65.1,31,54.7,20.6,41.8,20.6z"/>
</g>
</svg>
