<?xml version="1.0" encoding="utf-8"?>
<!-- Generator: Adobe Illustrator 21.0.2, SVG Export Plug-In . SVG Version: 6.00 Build 0)  -->
<svg version="1.1" id="Layer_1" xmlns="http://www.w3.org/2000/svg" xmlns:xlink="http://www.w3.org/1999/xlink" x="0px" y="0px"
	 viewBox="0 0 96 96" style="enable-background:new 0 0 96 96;" xml:space="preserve">
<g>
	<path d="M11.7,83C5.8,83,1,78.1,1,72V28c0-6.1,4.8-11,10.7-11h72.7c5.9,0,10.7,4.9,10.7,11v44c-0.1,6.1-5,11-10.8,11H11.7z
		 M11.7,23C9.1,23,7,25.2,7,28v44c0,2.8,2.1,5,4.7,5h72.7c2.5,0,4.7-2.3,4.7-5V28c0-2.8-2.1-5-4.7-5H11.7z"/>
</g>
<g>
	<path d="M48,63.1c-4.2,0-8.2-1.8-11.1-5.1L13.1,30.9c-1.1-1.2-0.9-3.1,0.3-4.2c0.5-0.5,1.2-0.7,1.9-0.7c0.9,0,1.7,0.4,2.3,1
		l23.8,27c1.7,1.9,4.1,3,6.5,3c2.5,0,4.9-1.1,6.6-3l23.8-27.1c0.6-0.6,1.4-1,2.3-1c0.7,0,1.4,0.3,1.9,0.7c1.2,1.1,1.4,3,0.3,4.2
		L59.1,58C56.2,61.3,52.2,63.1,48,63.1z"/>
</g>
<g>
	<path d="M15.4,75.9c-0.7,0-1.6-0.2-2.2-0.9c-0.5-0.6-0.8-1.3-0.8-2.1c0-0.8,0.4-1.6,1-2.1l20.9-19.9c0.5-0.5,1.3-0.8,2-0.8
		c0.9,0,1.7,0.4,2.2,1c0.5,0.5,0.8,1.3,0.8,2.1s-0.4,1.6-1,2.1L17.5,75C16.9,75.6,16.2,75.9,15.4,75.9z"/>
</g>
<g>
	<path d="M80.6,75.9c-0.8,0-1.5-0.3-2.1-0.9L57.6,55.1c-1.2-1.2-1.2-3-0.2-4.2c0.6-0.6,1.4-1,2.2-1c0.7,0,1.4,0.3,2,0.8l20.9,19.9
		c1.2,1.2,1.2,3,0.2,4.2C82.2,75.5,81.5,75.9,80.6,75.9z"/>
</g>
</svg>
