<svg xmlns="http://www.w3.org/2000/svg" xmlns:xlink="http://www.w3.org/1999/xlink" viewBox="0 0 19.73 19.48"><defs><style>.facebook-cls-1,.facebook-cls-3{fill:none;}.facebook-cls-2{clip-path:url(#facebook-clip-path);}.facebook-cls-3{stroke:#99a0a6;stroke-width:1.4px;}.facebook-cls-4{fill:#99a0a6;}</style><clipPath id="facebook-clip-path" transform="translate(0 0)"><rect class="facebook-cls-1" width="19.73" height="19.48"/></clipPath></defs><title>Asset 1</title><g id="Layer_2" data-name="Layer 2"><g id="Layer_1-2" data-name="Layer 1"><g class="facebook-cls-2"><ellipse class="facebook-cls-3" cx="9.87" cy="9.74" rx="9.17" ry="9.04"/><path class="facebook-cls-4" d="M9.45,3.37h0a3,3,0,0,1,1.66-.48,5,5,0,0,1,1.78.37,3.39,3.39,0,0,1,0,.35c0,.25-.1.52-.16.78l-.08.33a2.61,2.61,0,0,0-.89-.19,1.2,1.2,0,0,0-.62.16,1.16,1.16,0,0,0-.35.33,2,2,0,0,0-.3.75,5.09,5.09,0,0,0-.08,1v.12a.26.26,0,0,0,.27.27c.4,0,1,0,1.44,0h.06V8.49l-.51,0-.8,0a.31.31,0,0,0-.27.33c0,.54,0,2.56,0,4.43,0,.94,0,1.84,0,2.51,0,.32,0,.59,0,.78H8.72c0-.42,0-1.22,0-2.18,0-1.81,0-4.18-.08-5.64a.3.3,0,0,0-.27-.3c-.38,0-1,0-1.36,0V7h.27c.27,0,.58,0,.8,0a.3.3,0,0,0,.26-.31,8.39,8.39,0,0,1,.2-1.92A2.81,2.81,0,0,1,8.87,4a2,2,0,0,1,.59-.6" transform="translate(0 0)"/></g></g></g></svg>