<?xml version="1.0" encoding="utf-8"?>
<!-- Generator: Adobe Illustrator 21.0.2, SVG Export Plug-In . SVG Version: 6.00 Build 0)  -->
<svg version="1.1" id="Layer_1" xmlns="http://www.w3.org/2000/svg" xmlns:xlink="http://www.w3.org/1999/xlink" x="0px" y="0px"
	 viewBox="0 0 2048 1792" style="enable-background:new 0 0 2048 1792;" xml:space="preserve">
<style type="text/css">
	.st0{fill:#FFFFFF;}
</style>
<path class="st0" d="M448,1600v-128c0-17.3-6.3-32.3-19-45s-27.7-19-45-19H256c-17.3,0-32.3,6.3-45,19s-19,27.7-19,45v128
	c0,17.3,6.3,32.3,19,45s27.7,19,45,19h128c17.3,0,32.3-6.3,45-19S448,1617.3,448,1600z M448,1216v-128c0-17.3-6.3-32.3-19-45
	s-27.7-19-45-19H256c-17.3,0-32.3,6.3-45,19s-19,27.7-19,45v128c0,17.3,6.3,32.3,19,45s27.7,19,45,19h128c17.3,0,32.3-6.3,45-19
	S448,1233.3,448,1216z M448,832V704c0-17.3-6.3-32.3-19-45s-27.7-19-45-19H256c-17.3,0-32.3,6.3-45,19s-19,27.7-19,45v128
	c0,17.3,6.3,32.3,19,45s27.7,19,45,19h128c17.3,0,32.3-6.3,45-19S448,849.3,448,832z M1472,1600v-512c0-17.3-6.3-32.3-19-45
	s-27.7-19-45-19H640c-17.3,0-32.3,6.3-45,19s-19,27.7-19,45v512c0,17.3,6.3,32.3,19,45s27.7,19,45,19h768c17.3,0,32.3-6.3,45-19
	S1472,1617.3,1472,1600z M448,448V320c0-17.3-6.3-32.3-19-45s-27.7-19-45-19H256c-17.3,0-32.3,6.3-45,19s-19,27.7-19,45v128
	c0,17.3,6.3,32.3,19,45s27.7,19,45,19h128c17.3,0,32.3-6.3,45-19S448,465.3,448,448z M1856,1600v-128c0-17.3-6.3-32.3-19-45
	s-27.7-19-45-19h-128c-17.3,0-32.3,6.3-45,19s-19,27.7-19,45v128c0,17.3,6.3,32.3,19,45s27.7,19,45,19h128c17.3,0,32.3-6.3,45-19
	S1856,1617.3,1856,1600z M1472,832V320c0-17.3-6.3-32.3-19-45s-27.7-19-45-19H640c-17.3,0-32.3,6.3-45,19s-19,27.7-19,45v512
	c0,17.3,6.3,32.3,19,45s27.7,19,45,19h768c17.3,0,32.3-6.3,45-19S1472,849.3,1472,832z M1856,1216v-128c0-17.3-6.3-32.3-19-45
	s-27.7-19-45-19h-128c-17.3,0-32.3,6.3-45,19s-19,27.7-19,45v128c0,17.3,6.3,32.3,19,45s27.7,19,45,19h128c17.3,0,32.3-6.3,45-19
	S1856,1233.3,1856,1216z M1856,832V704c0-17.3-6.3-32.3-19-45s-27.7-19-45-19h-128c-17.3,0-32.3,6.3-45,19s-19,27.7-19,45v128
	c0,17.3,6.3,32.3,19,45s27.7,19,45,19h128c17.3,0,32.3-6.3,45-19S1856,849.3,1856,832z M1856,448V320c0-17.3-6.3-32.3-19-45
	s-27.7-19-45-19h-128c-17.3,0-32.3,6.3-45,19s-19,27.7-19,45v128c0,17.3,6.3,32.3,19,45s27.7,19,45,19h128c17.3,0,32.3-6.3,45-19
	S1856,465.3,1856,448z M1984,288v1344c0,44-15.7,81.7-47,113s-69,47-113,47H224c-44,0-81.7-15.7-113-47s-47-69-47-113V288
	c0-44,15.7-81.7,47-113s69-47,113-47h1600c44,0,81.7,15.7,113,47S1984,244,1984,288z"/>
</svg>
