<?xml version="1.0" encoding="utf-8"?>
<!-- Generator: Adobe Illustrator 21.1.0, SVG Export Plug-In . SVG Version: 6.00 Build 0)  -->
<!DOCTYPE svg PUBLIC "-//W3C//DTD SVG 1.1//EN" "http://www.w3.org/Graphics/SVG/1.1/DTD/svg11.dtd">
<svg version="1.1" id="Layer_1" xmlns="http://www.w3.org/2000/svg" xmlns:xlink="http://www.w3.org/1999/xlink" x="0px" y="0px"
	 viewBox="0 0 20 20" style="enable-background:new 0 0 20 20;" xml:space="preserve">
<g id="Layer_1">
	<g>
		<g>
			<g>
				<g>
					<path fill="#ffffff" d="M7.4,15l-0.1,0C7.1,14.9,7,14.7,7,14.5v-9c0-0.2,0.1-0.4,0.3-0.4l0.2,0l0.2,0l6.2,4.6l0.1,0.5l-6.2,4.7L7.6,15H7.4z
						 M8,13.5l4.7-3.5L8,6.5V13.5z"/>
				</g>
			</g>
		</g>
		<g>
			<g>
				<g>
					<path fill="#ffffff" d="M0.5,18C0.2,18,0,17.8,0,17.5v-15C0,2.2,0.2,2,0.5,2h19C19.8,2,20,2.2,20,2.5v15c0,0.3-0.2,0.5-0.5,0.5H0.5z M19,17v-2
						h-2v2H19z M16,17V3H4v14H16z M3,17v-2H1v2H3z M19,14v-2h-2v2H19z M3,14v-2H1v2H3z M19,11V9h-2v2H19z M3,11V9H1v2H3z M19,8V6h-2
						v2H19z M3,8V6H1v2H3z M19,5V3h-2v2H19z M3,5V3H1v2H3z"/>
				</g>
			</g>
		</g>
	</g>
</g>
</svg>
