<?xml version="1.0" encoding="utf-8"?>
<!-- Generator: Adobe Illustrator 21.0.2, SVG Export Plug-In . SVG Version: 6.00 Build 0)  -->
<svg version="1.1" id="Layer_1" xmlns="http://www.w3.org/2000/svg" xmlns:xlink="http://www.w3.org/1999/xlink" x="0px" y="0px"
	 viewBox="0 0 96 96" style="enable-background:new 0 0 96 96;" xml:space="preserve">
<style type="text/css">
	.st0{fill:#2378CB;}
</style>
<path class="st0" d="M48.5,69.5c-11.9,0-21.5-12.9-22.4-24.3c-2.7-0.8-5.1-3-5.1-5.7v-8c0-2.5,2.4-4.3,4-5.2v-6.8
	c0-7.6,6.1-13.8,13.6-14c1.6-0.6,7.9-3,14.4-3c10.3,0,16,6,16,17v6.2c4,0.8,4,4,4,5.8v8c0,2.8-1.3,4.9-3.3,5.6
	C68.9,57,60.1,69.5,48.5,69.5z M53,6.5c-6.5,0-13.1,2.8-13.2,2.8c-0.2,0.1-0.5,0.2-0.8,0.2c-5.5,0-10,4.5-10,10v8
	c0,0.8-0.5,1.5-1.2,1.8c-1.4,0.6-2.7,1.7-2.8,2.2v8c0,0.9,1.7,2,3,2c1.1,0,2,0.9,2,2c0,9.9,8.5,22,18.5,22c9.7,0,17.3-11.8,17.3-22
	c0-1.1,0.9-2,2-2c0.8,0,1.3-0.7,1.3-2v-8c0-2,0-2-2-2c-1.1,0-2-0.9-2-2v-8C65,10.8,61.1,6.5,53,6.5z"/>
<path class="st0" d="M79,93.5c-1.1,0-2-0.9-2-2v-20c0-1.1,0.9-2,2-2s2,0.9,2,2v20C81,92.6,80.1,93.5,79,93.5z"/>
<path class="st0" d="M89,83.5H69c-1.1,0-2-0.9-2-2s0.9-2,2-2h20c1.1,0,2,0.9,2,2S90.1,83.5,89,83.5z"/>
<path class="st0" d="M7,93.5c-1.1,0-2-0.9-2-2c0-11.6,9.3-20,22-20h4.9l5.3-7.9c0.6-0.9,1.9-1.2,2.8-0.5c0.9,0.6,1.2,1.9,0.5,2.8
	l-5.9,8.8c-0.4,0.6-1,0.9-1.7,0.9h-6c-10.6,0-18,6.6-18,16C9,92.6,8.1,93.5,7,93.5z"/>
</svg>
